<?xml version="1.0" encoding="UTF-8"?>
<svg id="Calque_1" xmlns="http://www.w3.org/2000/svg" version="1.1" viewBox="0 0 490 225.3">
  <!-- Generator: Adobe Illustrator 30.8.2, SVG Export Plug-In . SVG Version: 2.1.4 Build 7)  -->
  <defs>
    <style>
      .st0 {
        opacity: .2;
      }

      .st0, .st1 {
        isolation: isolate;
      }

      .st2 {
        fill: #1e1e1e;
      }

      .st3 {
        fill: #f7941f;
      }

      .st1 {
        fill: #fff;
        opacity: .2;
      }
    </style>
  </defs>
  <path class="st0" d="M181.6,72.2c-.3-9.5-.5-19.1-.5-28.7,0-2.7-2.2-3.6-4.4-2.5-2.5,1.2-4.3,4.6-4.2,7.3,0,7.1.3,14.2.4,21.4,0,3.7,0,7.3.3,11,.2,2.2.5,4.6.5,6.9-2.5.2-7.2-.2-8.5,0-3.5.4-6.9.5-10.4.2-7.5-1-15-.8-22.5-1-4.7-.2-9.3,10.8-4.1,11,4.7.2,9.3.3,13.9.4,4,.1,8,.9,12.1,1,4.4.1,8.7-.9,13.1-.8,4,0,6.9,0,10.2-2.5,7-5.7,4.5-15.8,4.2-23.5Z"/>
  <polygon class="st3" points="174.1 39.9 171.7 38 127.4 37.8 125 39.6 124.3 88.3 127.4 91.6 171 91.8 174.1 88.6 174.1 39.9"/>
  <path class="st0" d="M243.9,75c-.5-10.3-.6-20.6-.6-30.9,0-2.7-2.2-3.6-4.4-2.5-2.5,1.2-4.3,4.6-4.2,7.3,0,7,.3,14,.4,20.9,0,3.6,0,7.2.3,10.9.1,2.2.4,4.5.4,6.8-2.6.2-7.2.2-8.3.3-3,.3-6.1.3-9.1,0-7.5-.5-15.1-.9-22.6-1.1-4.7-.2-9.3,10.8-4.1,11,8.2.3,16.4.8,24.6,1.3,3.1.2,6.2,0,9.2-.3,3.8-.5,8.4.6,11.9-1.2,8.5-4.5,6.9-14.4,6.6-22.4Z"/>
  <path class="st3" d="M237.9,40.9l-2.3-2.9s-42.9-.2-44.3.2c-2.1.5-3.6,2.3-3.9,4.4l-.2,45.7,2.9,3.3h45c0,.1,2.6-4,2.6-4l.2-46.7Z"/>
  <path class="st0" d="M306,45.3c0-2.7-2.2-3.6-4.4-2.5-2.5,1.2-4.3,4.6-4.2,7.3,0,11.9,0,23.8,0,35.7-12.4.2-24.9.6-37.3.2-4.7-.2-9.3,10.8-4.1,11,14.5.5,29.1,0,43.7-.3,3.7,0,6.4-4.5,6.4-7.9,0-14.5,0-29,0-43.5Z"/>
  <path class="st3" d="M249.6,44.3c0-5,6.2-6.1,6.2-6.1l40,.5,4.1,4.6v41.3s-.6,6.4-8.2,6.4c-3.2,0-39.9.4-40.8-.3-2.1-1.6-1.2-44.5-1.3-46.5Z"/>
  <path class="st0" d="M367,45c0-2.7-2.2-3.6-4.4-2.5-2.5,1.2-4.3,4.6-4.2,7.3,0,11.6,0,23.2,0,34.9-12.4.4-25,.9-37.4.5-4.7-.2-9.3,10.8-4.1,11,14.6.5,29.2-.3,43.8-.7,3.7,0,6.4-4.5,6.4-7.9,0-14.2,0-28.4,0-42.6Z"/>
  <path class="st3" d="M361.3,78.2c-.1,1.9.2,8.7-3,10.7s-47-.4-47-.4l.2-43.6s-1.8-5.9,6.4-6.1c3.1,0,42.8,0,42.8,0l.7,39.3Z"/>
  <path class="st1" d="M172,38.4c-7.4.3-14.8.6-22.2.5-7,0-14-1-21-1s-5.3,4.1-4.7,6.8c.3,1.4,1,2.6,2,3.6-.5,1.7-.7,3.4-.8,5.2,0,2.2.1,4.5.4,6.7-.4,9.3-.3,18.5.1,27.8.2,4.7,5.4,1,6.1-1.5,1.8-6.4,2.3-13,1.5-19.6-.3-3.3-.8-6.7-1.1-10,0-2.7.2-5.3.4-7.9.4-.2.8-.4,1.2-.6.7-.5,1.4-1.1,1.9-1.8,3.7.3,7.3.5,11,.6,7.4,0,14.8-.2,22.2-.5,3.5-.1,6.9-8.4,3.1-8.2Z"/>
  <path class="st1" d="M235.5,39.7c-14.4-.9-28.9-.3-43.3,1.8-2.3.3-4,3.8-4,5.8,0,7.8-1.1,15.6-1,23.4,0,4.9,0,15.1,4.4,18.3,1,.7,2.4-.2,3.1-.8l.2-.2c2.4-1.8,2.9-6.6.8-7.1-1.3-1.6-1.6-6.7-1.8-8.4-.3-3.3-.4-6.6-.2-10,.2-4.5.6-9,.8-13.6,12.5-1.5,25.2-1.9,37.8-1.1,3.5.2,7-8,3.1-8.3Z"/>
  <path class="st1" d="M298.1,41l-1.9-.3c-.2,0-.4,0-.7,0-7.9-.9-15.9-1.3-23.8-1.2-3.6,0-8.1-.2-12.1.6-1.7-.2-3.5-.2-5.2-.2-3.1,0-6,4.8-4.3,7.5,1.5,2.5-.3,7.8-.5,10.6-.2,3.9-.2,7.8,0,11.7.2,6.6.4,13.2,3.2,19.4,2,4.5,6.2-2.2,6.4-4.5.5-7.5.8-15.1.6-22.6,0-3.6-.2-7.2-.5-10.8,0-.6,0-1.2-.1-1.8.8-.4,1.6-.9,2.3-1.4h2.5c3.6-.2,7.2-.2,10.8-.2,6.8.1,13.7.6,20.5,1.5,3.4.4,7.1-7.6,3.1-8.2Z"/>
  <path class="st1" d="M359.2,41.3c-6.9-2-13.8-1.5-20.8-1.1-7.3.3-14.6,0-21.9-.5-2.6-.2-5.1,3.6-4.8,5.9,1.5,13.5,1.1,26.9,1.5,40.4.1,5.3,6.6-.2,6.5-3.6-.3-11.5,0-22.8-.9-34.2,5.5.4,11,.4,16.6.2,7.1-.3,13.9-.8,20.8,1.1,3.2.9,7.1-7.1,3.1-8.2Z"/>
  <path class="st2" d="M301,51.6c0-4.1.8-9.4-2.5-12.4-2.4-2.1-6.1-1.7-9-1.8-2.6-.1-5.1-.2-7.7-.2h-14.2c-6.9,0-17.5-2-18.5,7.1,0,0,0,.1,0,.2-1.1,15.5-1.1,31,0,46.5,0,.6.5,1.1,1.1,1.1,9.7,0,19.3.7,29,.4,5.6-.2,11.9.7,17.2-.9,4.6-1.4,5-5.2,5-9.4,0-10.2-.3-20.4-.4-30.6ZM299.2,84.2c-1.5,6.4-6.9,5.7-12,5.8-3.4,0-6.9.2-10.3.3-8.6.2-17.1-.3-25.6-.4-1.4-15.1-1.7-30.2-.8-45.4h0c1.4-7.4,13.2-5.3,19-5.3h12.2c1.3,0,2.6,0,3.9,0,1.9,0,3.8.1,5.7.2,1,0,2.1,0,3.1.2,3.5.8,4.3,3.9,4.4,7.1,0,2.7,0,5.3,0,8,0,8.7.2,17.4.2,26.2.1,1.1.1,2.2,0,3.2h0Z"/>
  <path class="st2" d="M361.5,83.9c1.1-15,1.1-30.1,0-45.2,0-.6-.5-1.1-1.1-1.1-8.5,0-17-.7-25.5-.5-4,0-8,.2-12,.3-4.6.2-11.2-1.2-12.6,4.5-.7,2.9-.4,6-.4,9,0,5,.1,10.1.2,15.1.1,7.5.1,15,.3,22.5,0,.5.3.9.8,1,9.7,1.5,19.6,1.3,29.4,1.2,4.2,0,8.4.2,12.6-.1,5.5-.4,7.5-.9,8.3-6.6,0,0,0-.1,0-.2h0ZM356.3,88.5c-3.3.4-6.7.5-10,.4h-12.4c-4.8,0-9.5-.1-14.2-.3-2,0-5.2.1-7.2-.6,0-.6,0-1.2,0-1.7,0-1.7,0-3.4,0-5.1,0-8.5-.1-17-.2-25.5,0-3.5-.2-7.1,0-10.7s2-4.5,5.3-5c2.4-.2,4.8-.3,7.3-.2l5.6-.2c9.7-.2,19.3.2,29,.3,1.3,14.6,1.6,29.2.8,43.8h0c-.8,3.1-1,4.2-3.8,4.7Z"/>
  <path class="st2" d="M238.9,79.7c0-5.2,0-10.4-.2-15.5,0-7.7,0-15.5-.3-23.2h0c0,0,0-.1,0-.2-.8-5.6-9.6-3.5-13.6-3.6-8.8-.1-17.6-.2-26.4-.3-2.1,0-4.1,0-6.2.4-4.3.9-5.6,1.1-5.8,5.5-.3,6.3-.1,12.7-.2,19,0,7.3-.3,14.6-.3,21.9,0,3.6-.7,8.2,3.7,9.1,2.5.5,5.4.2,8,.3,8.6.2,17.2.6,25.8.5,5.7,0,14.3,1.7,15.5-5.8.3-2.5,0-5.3,0-7.8ZM236.6,87.2c-.9,5-6.8,3.7-10.7,3.8-5.8.2-11.7,0-17.5-.2l-12.1-.2c-2.5,0-6.8.7-8.1-2.3-.8-1.8-.2-5.5-.2-7.7v-10.2c.1-7.4.2-14.8.3-22.2,0-1.8,0-3.7,0-5.6.2-2.8,1.2-2.8,3.8-3.4,1.1-.2,2.1-.4,3.2-.5,7.3-.4,14.8.1,22.1.2h12.6c2.8.1,6.1-1,6.8,2.1h0c.6,13.2-.3,26.5-.4,39.7,0,2,.4,4.4,0,6.3h0Z"/>
  <path class="st2" d="M174.8,41c0,0,0-.2,0-.3-1-5.9-10.2-3.9-14.8-3.9h-24.2c-2.9-.1-5.8,0-8.6.4-3.7.7-3.7,3.8-3.7,7,0,5.8-.1,11.6-.2,17.4,0,7.2-.3,14.3-.3,21.5,0,2.8-.7,7.1,2,8.9,2,1.3,5.7.8,7.9.9,8.1.2,16.2.5,24.4.5,3.9,0,8.1.3,12-.2,5.8-.8,6-4.1,6-9.4.2-14.3.3-28.7-.5-42.9ZM173.2,83.5c0,2.5.4,5.6-2.4,7.1-2.6,1.4-7.6.2-10.5.3-5.8.2-11.5,0-17.3-.2l-10-.2c-1.1,0-2.2,0-3.4,0-3.7-.2-4.2-1.9-4.4-5.3-.2-4.9,0-9.9,0-14.8,0-7.1.1-14.2.2-21.3v-3.6c0-1.8-.6-5,1.1-6.2,1.3-.9,5.2-.5,6.8-.5,6.6-.1,13.2,0,19.8,0s19.1-1.7,20.1,2.3h0c.7,12.3-.2,24.8-.2,37,0,1.8.1,3.6,0,5.4Z"/>
  <path class="st0" d="M181.6,162.7c-.3-9.5-.5-19.1-.5-28.7,0-2.6-2.2-3.6-4.4-2.6-2.5,1.2-4.3,4.6-4.2,7.4,0,7.1.3,14.2.4,21.4,0,3.6,0,7.3.3,10.9.2,2.2.5,4.6.5,6.9-2.5.2-7.2-.2-8.5,0-3.5.4-6.9.5-10.4.2-7.5-1-15-.8-22.5-1-4.7-.1-9.3,10.8-4.1,11l13.9.4c4,.1,8,.9,12.1,1,4.4.1,8.7-.9,13.1-.8,4,0,6.9.1,10.2-2.5,7-5.6,4.5-15.7,4.2-23.5Z"/>
  <path class="st3" d="M174.1,130.9c0-1-3.7-3.1-4.3-3.1-1.8,0-39.8.1-41.6.2-1.4.4-2.6,1.1-3.7,2.1-.5,1.1-.2,46.7-.2,48.2,0,.7,2.6,3.8,4.1,3.8,1.8,0,40.8.5,42.3,0s3.3-3.3,3.4-4.6,0-45.6,0-46.7Z"/>
  <path class="st0" d="M243.9,165.4c-.5-10.3-.6-20.6-.6-30.9,0-2.6-2.2-3.6-4.4-2.6-2.5,1.2-4.3,4.6-4.2,7.4,0,7,.3,13.9.4,20.9,0,3.6,0,7.3.3,10.9.1,2.2.4,4.5.4,6.8-2.6.2-7.2.2-8.3.3-3,.3-6.1.3-9.1,0-7.5-.5-15.1-.9-22.6-1.1-4.7-.2-9.3,10.8-4.1,11,8.2.3,16.4.8,24.6,1.3,3.1.2,6.2,0,9.2-.3,3.8-.5,8.4.6,11.9-1.2,8.5-4.5,6.9-14.4,6.6-22.4Z"/>
  <path class="st3" d="M237.6,131.4c-.4-2.6-3.1-3.1-3.7-3.1-1.5,0-40.2-.6-43.5.7s-3.2,3.5-3.1,4.7c0,.8-.2,43.6-.2,45.2,0,.7,1.7,2.7,2.1,3.3.7,1.1,44.3.5,45.8.1.5-.1,2.6-2.9,2.6-4.2s.1-45.7,0-46.7Z"/>
  <path class="st0" d="M306,135.8c0-2.6-2.2-3.6-4.4-2.5-2.5,1.2-4.3,4.6-4.2,7.4,0,11.9,0,23.8,0,35.7-12.4.2-24.9.6-37.3.2-4.7-.1-9.3,10.8-4.1,11,14.5.4,29.1,0,43.7-.3,3.7,0,6.4-4.5,6.4-7.9,0-14.5,0-29,0-43.5Z"/>
  <path class="st3" d="M249.6,134.8c.9-4.8,6.6-6,7.8-6.1,3.3-.1,37.2-.2,38.4.5,1.5,1.3,2.8,2.8,3.9,4.4,1,2.2.4,38.4.3,41.4,0,1.4-1.7,4.1-2.5,5.3-1.5,2.1-46.2,1.6-47.1.9-2.1-1.6-1.1-44.5-.8-46.5Z"/>
  <path class="st0" d="M367,135.5c0-2.6-2.2-3.6-4.4-2.6-2.5,1.2-4.3,4.6-4.2,7.4,0,11.6,0,23.2,0,34.9-12.4.4-25,.9-37.4.5-4.7-.1-9.3,10.8-4.1,11,14.6.5,29.2-.3,43.8-.7,3.7-.1,6.4-4.5,6.4-7.9,0-14.2,0-28.4,0-42.6Z"/>
  <path class="st3" d="M361,174.4c-.4,2.3-1.7,4.3-3.6,5.5-.4.2-44.9,1.5-45.6-1.4-.6-2.2-.5-40.2-.3-43.1,0-1.3-2-6.4,8-6.2,3.1,0,39.9-.4,40.7.2,2,1.6.9,44.9.9,44.9Z"/>
  <path class="st1" d="M359.3,130.2l-24.1.2h-12.6c-2.5.1-5.2-.2-7.3,1.3-4.8,3.5-2.9,10.2-2.4,15.1,0,.6.1,1.1.2,1.7-.3.8-.5,1.6-.5,2.4-.2,7.6-.4,15.2-.6,22.8,0,1.3,1,2.7,2.5,2.2,6.4-2.1,6.3-10.1,6.3-15.7,0-4.4-.4-8.9-1-13.2-.3-2.6-1.2-5.8-1.4-8.7,2.3,0,5.8.4,6.8.4h10.6c0-.1,20.3-.3,20.3-.3,3.6,0,7-8.3,3.1-8.2Z"/>
  <path class="st1" d="M297.3,131.8c-9.6-2.1-19.2-1.3-28.9-.9,0-.9-.8-1.7-1.7-1.7-2.1-.1-4.2,0-6.3.4-2.7.2-5.4.6-7.4,2.1-2.7,2-3.8,5.6-3.5,8.9.1,1.9.4,3.8.7,5.7-.4.9-.6,1.8-.7,2.8-.2,6.2,0,12.5.6,18.7.3,3.2,0,9.9,4.5,10,1.7,0,3.1-1.4,3.9-2.8,3.8-6.2,1.1-15,0-21.8-.7-4.4-1.4-8.8-2.1-13.2,0-.2,0-.4-.1-.6,11.5,0,23.1-1.7,34.5,0,.3.2.6.3,1,.4l2.3.2c3.4.3,7.2-7.4,3.1-8.2Z"/>
  <path class="st1" d="M236,130.1c-7,.3-14,.4-21.1.4s-14.1-1.2-21-1c-4.1.1-6.4,3.7-6.7,7.6-.6,6.8,0,13.8,0,20.6,0,5.6-1.1,13.2,1.2,18.5,1.8,4.1,5.8,2.4,7.7-.8,2.7-4.6,1.2-11.6,1.2-16.6,0-6.9,0-13.8-.2-20.8,1.4.1,2.8.3,4.1.4,3.5.2,7,.3,10.5.3,7,.1,14,0,21.1-.4,3.5-.2,6.9-8.4,3.1-8.2Z"/>
  <path class="st1" d="M172.1,130.4c-13.9-4-28.2,1.2-42.2-1.3-2.7-.5-4.8,3.8-4.8,5.9.3,14.7.5,29.4.8,44.1,0,3.5,3.4,2.1,4.9.5,4.4-4.7,4.6-12.7,4.6-18.8,0-7.6-1.1-15.2-1-22.8,11.6.2,23.3-2.7,34.7.6,3.2.9,7.1-7.1,3.1-8.2Z"/>
  <path class="st2" d="M174.8,131.4c0,0,0-.2,0-.3-1-5.9-10.2-3.9-14.8-3.9-8.1,0-16.2,0-24.2,0-2.9-.1-5.8,0-8.6.4-3.7.7-3.7,3.8-3.7,7,0,5.8-.1,11.6-.2,17.4,0,7.2-.3,14.4-.3,21.5,0,2.8-.7,7.1,2,8.9,2,1.3,5.7.8,7.9.9,8.1.2,16.2.5,24.4.5,3.9,0,8.1.3,12-.2,5.8-.8,6-4.1,6-9.4.2-14.2.3-28.7-.5-42.8ZM173.2,174c0,2.5.4,5.6-2.4,7.1-2.6,1.4-7.6.2-10.5.3-5.8.2-11.5,0-17.3-.2l-10-.2c-1.1,0-2.2,0-3.4,0-3.7-.2-4.2-1.9-4.3-5.3-.2-4.9,0-9.9,0-14.8,0-7.1.1-14.2.2-21.3v-3.6c0-1.8-.6-5,1.1-6.2,1.3-.9,5.2-.4,6.8-.5,6.6-.1,13.2,0,19.8,0s19.1-1.7,20.1,2.4h0c.7,12.3-.2,24.8-.2,37,0,1.8,0,3.6,0,5.4Z"/>
  <path class="st2" d="M238.9,170.2c0-5.2,0-10.4-.2-15.6,0-7.7,0-15.5-.3-23.2h0c0,0,0-.1,0-.2-.8-5.6-9.6-3.5-13.6-3.6-8.8-.1-17.6-.2-26.4-.3-2.1,0-4.1,0-6.2.4-4.3.9-5.6,1.1-5.8,5.5-.3,6.3-.1,12.6-.2,18.9,0,7.3-.3,14.6-.3,21.9,0,3.6-.7,8.2,3.7,9.1,2.5.5,5.4.2,8,.3,8.6.2,17.2.6,25.8.5,5.7,0,14.3,1.7,15.5-5.9.3-2.5,0-5.3,0-7.8ZM236.6,177.6c-.9,5-6.8,3.7-10.7,3.8-5.8.2-11.7,0-17.5-.2l-12.1-.2c-2.5,0-6.8.7-8.1-2.3-.8-1.8-.2-5.5-.2-7.7v-10.2c.1-7.4.2-14.8.3-22.2,0-1.8,0-3.7,0-5.6.2-2.8,1.2-2.8,3.8-3.4,1.1-.2,2.1-.4,3.2-.5,7.3-.4,14.8.1,22.1.2h12.6c2.8.1,6.1-1,6.8,2.1h0c.6,13.2-.3,26.5-.4,39.7,0,2,.4,4.4,0,6.3h0Z"/>
  <path class="st2" d="M301,142.1c0-4.1.8-9.4-2.5-12.4-2.4-2.1-6.1-1.7-9-1.8-2.6-.1-5.1-.2-7.7-.2h-14.2c-6.9,0-17.5-2-18.5,7.1,0,0,0,.1,0,.2-1.1,15.5-1.1,31,0,46.5,0,.6.5,1.1,1.1,1.1,9.7,0,19.3.7,29,.4,5.6-.1,11.9.7,17.2-.9,4.6-1.4,5-5.2,5-9.4,0-10.2-.3-20.4-.4-30.7ZM299.2,174.7c-1.5,6.4-6.9,5.7-12,5.8-3.4.1-6.9.2-10.3.3-8.6.2-17.1-.3-25.6-.4-1.4-15.1-1.7-30.3-.8-45.4h0c1.4-7.4,13.2-5.3,19-5.3h12.2c1.3,0,2.6,0,3.9,0,1.9,0,3.8.1,5.7.2,1,0,2.1,0,3.1.2,3.5.8,4.3,3.9,4.4,7.1,0,2.7,0,5.3,0,8,0,8.7.2,17.4.2,26.1.1,1.1.1,2.2,0,3.2h0Z"/>
  <path class="st2" d="M361.5,174.4c1.1-15,1.1-30.1,0-45.2,0-.6-.5-1.1-1.1-1.1-8.5,0-17-.7-25.5-.5-4,0-8,.2-12,.3-4.6.1-11.2-1.2-12.6,4.5-.7,2.9-.4,6.1-.4,9,0,5,.1,10.1.2,15.1.1,7.5.1,15,.3,22.5,0,.5.3.9.8,1,9.7,1.5,19.6,1.3,29.4,1.2,4.2,0,8.4.2,12.6-.1,5.5-.4,7.5-.9,8.3-6.6,0,0,0-.1,0-.2h0ZM356.3,178.9c-3.3.4-6.7.5-10,.4h-12.4c-4.8,0-9.5-.1-14.2-.3-2,0-5.2.1-7.2-.6,0-.6,0-1.1,0-1.7,0-1.7,0-3.4,0-5.1,0-8.5-.1-17-.2-25.4,0-3.5-.2-7.1,0-10.7s2-4.5,5.3-5c2.4-.2,4.8-.3,7.3-.2,1.9,0,3.7-.1,5.6-.2,9.7-.2,19.3.2,29,.3,1.3,14.6,1.6,29.2.8,43.8h0c-.8,3.2-1,4.3-3.8,4.7h0Z"/>
  <path class="st2" d="M340.1,62.1c-2.2-2.2-4-5.3-6.8-6.9-.6-.3-1.4,0-1.7.5-.2.5-.2,1,.2,1.4,1.8,1.9,3.5,3.9,5.3,5.8.2.2.5.6.8,1-40.2.8-80.4.8-120.5.6-23.3,0-46.8-1.3-70.1-.4-.6,0-1,.4-1,1s.4,1,1,1c20.7,1.4,41.7.8,62.4,1,17.5.1,35,.2,52.5.1,22.5,0,44.9-.2,67.4-.5,2.1,0,4.9-.1,7.3-.2-1,.8-2,1.9-2.9,2.7-1.6,1.4-3.2,2.8-4.8,4.3-.6.6,0,1.7.8,1.4,2.2-.8,3.9-2.4,5.8-3.9,1.3-1.1,2.6-2.2,4-3.2.7-.5,2-1,2.4-1.8,1-1.9-1.1-2.9-2.2-4Z"/>
  <path class="st2" d="M344.2,154.9c-17.1-1.5-34.4-1.1-51.6-1.4-17.5-.2-35.1-.3-52.6-.2-26.8,0-53.5.3-80.3.8-3.9,0-8.6.2-12.6.3,2.6-2.2,5.7-4,8.2-6.1.6-.5,0-1.8-.8-1.4-2.5,1.1-4.8,2.5-6.9,4.2-1.7,1.1-3.3,2.3-4.9,3.7-.4.4-.5,1.1-.2,1.6.8,1.6,3.4,3.2,4.7,4.3,2,1.6,4.2,4,6.6,4.9,1.3.5,1.9-1.2,1.2-2.1-1.5-1.8-4-3.2-5.9-4.8-.6-.5-1.5-1.1-2.3-1.8,46.2-1,92.5-1.4,138.8-1.1,19.5.1,39,1.2,58.5.8.6,0,1-.4,1-1s-.5-1-1-1Z"/>
</svg>