<?xml version="1.0" encoding="UTF-8"?>
<svg id="Calque_1" xmlns="http://www.w3.org/2000/svg" version="1.1" viewBox="0 0 566 175">
  <!-- Generator: Adobe Illustrator 29.8.1, SVG Export Plug-In . SVG Version: 2.1.1 Build 2)  -->
  <defs>
    <style>
      .st0 {
        opacity: .2;
      }

      .st0, .st1, .st2 {
        isolation: isolate;
      }

      .st1 {
        opacity: .2;
      }

      .st3 {
        fill: #1e1e1e;
      }

      .st4 {
        fill: #995db5;
      }

      .st5 {
        fill: #f7941f;
      }

      .st2 {
        fill: #fff;
        opacity: .2;
      }
    </style>
  </defs>
  <g id="e9eff33d-fa09-40e7-9935-eb32e85a00a4">
    <path class="st4" d="M529.4,128c.8-2.3.9-4.7.3-7,3.3-5,5.1-11.4,3.7-15.4-1.8-5.2-3.2-10.6-4-16,.7-7.3.8-14.7,0-22,0-1.9-.7-3.7-1.8-5.3,2.6-4.8,4.9-12.4,1.5-17.3-.5-.7-1.1-1.4-1.9-1.9,4.4-5.9,9.8-22.8-3-21.2-15.1,1.9-30.5-.8-45.5-3.2-14.8-2.4-29.8-3.6-44.8-3.6-30.3.3-60.4,4.2-90.6,5.8-61.6,3.2-123.3,2.2-184.9,1.4-34-.4-68.1-.8-102.2-.3-2.8-.2-5.7-.5-8.5-.8-10.9-1.1-22.3,23.1-12.3,27-3.2,3.9-5.1,8.7-5.3,13.7-.3,6.2,2.8,9.7,7.2,11.7-3.2,3.2-5.3,7.3-6.1,11.7-2.5,15.8-1.9,31.9,1.7,47.5.6,2.5,2.7,4.4,5.2,4.8h1.5c-4,4-7.3,9.1-7.7,14.8-.2,3.9.8,8.8,5.5,9.4,29.5,3.4,59.2,2.5,88.8,1.8,32.4-.7,64.9-1.9,97.3-2.2,31.7-.4,63.5,0,95.1,2.5,16.3,1.2,32.5,2.5,48.9,2.5,15.7,0,31.3-.5,47-1.1,17.6-.7,35.3-1.5,52.9-1.2s35.1,2.4,52.5-1.4c9-2,14.5-14.1,13-22.4-.8-4.3-2.1-8.4-3.8-12.4ZM340.6,52h-10.6,2.7c16.8-.9,33.6-1.1,50.5-.3,6,.3,12,.8,18,1.3-20.1-.5-40.3-.9-60.5-.9h0ZM112.6,136.9l13.6-2.8c1.2,1,2.5,1.8,3.9,2.4-5.8.2-11.6.4-17.4.4h0Z"/>
    <path class="st3" d="M37.2,34.4c.2-3.9-.9-8.3,3-10.7,2.7-1.6,6.4-1.4,9.4-1.5,5.6-.2,11.2,0,16.8,0h356.8c25.9,0,51.9-.3,77.8,0,5.5,0,11,.2,16.5.4,5.9.3,10.1,1.9,10.3,8.3,0,2.2-.2,4.3-.2,6.5v1.7c0,8.6.2,17.2.3,25.8.3,24,.6,48.1.9,72.1,0,1.8.1,3.7,0,5.5,0,2-.3,4-.4,6-.3,4.5-1,8.1-5.7,9.2-6.4,1.5-13.7.7-20.2.9-2.8,0-5.5,0-8.3,0l-36.5.2-140.8.4-156,.4c-26.7,0-53.7,1.2-80.4.3-5.4-.2-10.6-.4-16-.1-6.2.3-12.4,0-18.6-.9-3.4-.6-7.1-1.4-8.4-5.1-1.1-3.2-.8-7.4-.9-10.8-.1-5.7,0-11.3,0-17l.3-75.5c0-5.4,0-10.8,0-16.3,0-.4-.4-.7-.8-.6-.3,0-.6.3-.6.6-.1,19.1-.2,38.3-.4,57.4l-.3,38c0,7.6-.8,16,.5,23.4,1.5,8.4,12.3,8.3,19,8.7,8.6.5,17.2,0,25.8.2,2.4,0,4.9,0,7.3,0h42.1c49.9,0,99.9-.1,149.8-.3l155.6-.4h49.4c0-.1,12.2-.1,12.2-.1,8.8,0,18.2.8,26.7-1s7.6-10.1,7.8-17.5c0-2.2,0-4.5,0-6.7-.2-11.3-.3-22.6-.5-33.9-.3-21.3-1-42.7-.9-64.1,0-5.8,1.5-13.4-5-16.3-4.3-1.9-9.8-1.1-14.4-1.2-3,0-6-.2-9.1-.2H147.4c-26.9,0-53.8.1-80.6,0-6.2,0-12.4-.2-18.6.2-3.4.2-7.4.4-10.1,2.8-3.4,3-2.2,7.1-2.4,11.2,0,.9,1.4.9,1.5,0Z"/>
    <path class="st0" d="M518.1,107.4c-.2-18.6.1-37.2,0-55.8,0-3.3-2.7-4.6-5.5-3.2-3.1,1.6-5.3,5.8-5.3,9.2.1,16.4,0,32.8,0,49.2,0,8.3.7,16.4,1.2,24.7.1,2.2.2,4.4.2,6.6,0,.6-.2,1.6-.4,2.6h-.1c-1.3.5-2.6.9-4,1-3.9.2-7.9-.4-11.8-.3-4.2.1-8.5.5-12.7.9-8.1.7-16.2.7-24.3-.1-16.1-1.5-32.4-1.5-48.5-1.9-5.8-.1-11.6,13.6-5.2,13.7,18.1.5,36,1,54,2.4,9.4.7,18.4-.5,27.8-1.1,8.2-.5,16.6,1.4,24.3-2,8-3.4,10.9-9.3,11.5-17.6.7-9.4-1-18.8-1.2-28.2Z"/>
    <path class="st0" d="M382.5,115.9c-.6-7.2-.5-14.4-.5-21.6,0-14.2.1-28.5,0-42.7,0-3.3-2.7-4.6-5.5-3.2-3.1,1.6-5.3,5.8-5.3,9.2.2,23.7-.9,47.4,1,71,.2,2.8.4,5.7.4,8.5,0,1,0,2-.1,3-1.1.6-2.2,1.1-3.4,1.5-1.4.1-2.9,0-4.3,0-7.4-.3-14.8-.1-22.1,0-12.5.3-23.4,1.5-35.2,1.5-14.6,0-29.1-.7-43.7-1.2-18.9-.7-37.9-1.1-56.8-1.5-5.8-.1-11.6,13.6-5.2,13.7,33.6.9,67.3,2.6,101,2.7,13.1,0,26.2-1.3,39.3-1.6,7.2-.1,14.4.4,21.5.3,4.3-.3,8.5-1.7,12.1-4.2,5-3.4,7-8,7.4-13.9.6-7.1,0-14.1-.6-21.3ZM374.3,139.5c0,0,.2,0,.3,0,0,0-.2,0-.3,0h0Z"/>
    <path class="st0" d="M182.8,130.1c0-8.2-1.3-16.4-1.4-24.6-.1-18,.1-35.9,0-53.9,0-3.3-2.7-4.6-5.5-3.2-3.1,1.6-5.3,5.8-5.3,9.2.1,18.3-.2,36.6,0,54.9.1,9.3,1.8,18.6,1.3,27.9-1.1.5-2.2.9-3.4,1.2-2.7.4-5.4-.3-8.1-.2-5.3.3-10.4,1.6-15.8,1.6-7.3,0-14.5-.6-21.8-1.1-17-1.1-34.1-1.2-51.1-1.7-5.8-.1-11.6,13.6-5.2,13.7,15.2.4,30.4.4,45.5,1.3,11.8.7,23.9,2.2,35.8,1,4.4-.4,8.1-1.4,12.5-1.1,5.8.4,11.6-1.4,16.1-5,6.2-5,6.4-12.7,6.4-20.1Z"/>
    <path class="st5" d="M58.2,47.6c.2-2,3-4.6,5.5-5.7,1.9-.9,101.7-.8,103.2-.2,2.4.9,5.6,5.1,5.8,6.1.3,2.2.8,88.8.6,91.9,0,1.4-2.1,5.2-3.6,5.8-3.3,1.4-102,4.6-108.3-.4-2.1-1.7-3.3-4.2-3.2-6.9-.2-2.4-.2-88.7,0-90.7Z"/>
    <path class="st5" d="M374,47.6c-.2-2-5.1-5.5-5.8-5.6-1.5-.3-161.1-.2-165.3,0-1.8,0-7.2,2.2-7.7,3.1-1.3,2.2-1.6,91.7-1.6,94.7,0,4.6,7.4,6.3,11,6.4,4.3.1,158.9,1.5,163.5.7,3.1-.6,5.9-6.1,6-8.6s0-88.7-.2-90.7Z"/>
    <path class="st5" d="M503.5,41.1c2,.2,5.9,3.3,6.4,8,.1,1.5,1.1,89.5-1.5,94.5-.6,1.1-3.2,3-4.1,3.5-2.2,1.3-103.3,1.7-104.4.6-2.1-1.9-4.8-7.4-4.9-11-.1-4.3-1-84.2-.3-88.3.3-1.5,2.7-7.1,8.1-7.4,2.4,0,98.7-.1,100.7,0Z"/>
    <path class="st2" d="M164,43.9c-18.4-1.4-37-1.8-55.4-1.2-4.6.1-9.1.3-13.7.6-.4-1.2-1.4-2-2.7-2-6.2-.5-12.5-.1-18.7,1.2-1.4.4-2.6,1.1-3.5,2.1-7.7-1.8-17.4,10-11.1,17.6.6.7,1.2,1.3,2,1.8-.4,4-.2,8.2-.3,12,0,6.1,0,12.3.3,18.4-.7,3.5-1.4,7.1-2.1,10.6-2.8,14.6-3,36.1,15.6,39.8,5.2,1,11.1-10.2,6.3-13.4-4.4-2.9-5.3-8.4-6.1-13.3-1.2-7.2-1.9-14.5-2.4-21.8-.2-2.1-.3-4.3-.4-6.4,1.3-6.4,2.5-12.8,3.8-19.2,1-4.1,1.5-8.4,1.7-12.6,1.5-.2,3-.5,4.3-.6,4-.3,7.9-.5,11.9-.7,7.3-.4,14.5-.6,21.8-.7,14.5-.1,29.1.4,43.6,1.5,5.8.5,11.8-13.2,5.2-13.7Z"/>
    <path class="st2" d="M369,43.2c-28.2-1.5-56.4.8-84.6,2.8-4.6-.4-9.2-.7-13.8-.9-16.2-.7-32.6,2.9-48.7,1-3.3-.4-6.8-1.8-10-.7-1.3.5-2.6,1.2-3.6,2.2-2-.1-4-.3-5.9-.5-3.9-.3-7.5,4.9-7.8,8.2-3,26.5-3.2,53.3-.6,79.9.2,2.6,1.7,3.8,3.4,3.8.5,2.4,3.2,3,5.4,1.9,3.4-1.7,5-5.7,5.3-9.2l3.3-39.8c.5-6.3,1-12.6,1.6-18.9.3-3.3.6-6.6.8-9.9,0-.4,0-.8.1-1.2,21.7.8,43.4-.5,65.1-2.1,2.9.2,5.8.5,8.7.8,25.8,2.6,52.6,5.6,77.4-3.8,3.1-1.3,5.5-3.9,6.3-7.2.6-2.1.8-6.2-2.4-6.4Z"/>
    <path class="st3" d="M375.5,129.4c0-3.2,0-6.4,0-9.6-.2-20.4-.4-40.9-.6-61.3,0-1.6,0-3.2,0-4.8,0,0,0-.1,0-.2-.1-6.8,0-11.8-8-12.7-5.6-.7-11.3-.3-16.9-.3h-132.1c-2.5,0-5,0-7.5.2-6.4.2-15.1-1.2-16.9,6.8-.8,3.5,0,7.4-.1,11,0,3.4-.1,6.9-.2,10.3-.3,19.8-.6,39.6-.9,59.4,0,4.2-.3,8.8.6,12.9,1.6,7,10.2,6.1,15.9,6.3,6.8.1,13.7.2,20.5.3,36.2.4,72.4.8,108.6.5,5.5,0,11,.2,16.6.3,5.9.1,17.6.8,20.3-6.1,1.5-3.9.9-8.8.9-13ZM373.5,131c0,2.4-.2,4.9-.4,7.3-.4,4.2-2.7,6.2-6.6,7.1-5.2,1.1-10.5,1-15.8.8-14.1-.5-28.1.2-42.2,0-20.3-.2-40.6-.4-60.9-.6l-23.4-.2h-4.1c-2.8,0-5.6-.1-8.5-.2-5.6-.1-14.5,1.4-16.7-5.4-1.1-3.3-.6-7.7-.5-11.3v-9.4c.3-10.5.4-21,.5-31.4.1-8.9.3-17.7.4-26.5,0-1.5,0-3.1,0-4.6,0-5.6-1.3-12.7,6.3-13.4,4.6-.4,9.3-.4,13.9-.5,11.6-.2,23.2,0,34.9,0,33.4,0,66.8.1,100.2,0,4.1,0,8.1-.1,12.2,0,3.1,0,5.5,0,8,1.9,3.2,2.4,2.3,5.7,2.4,9.2h0c0,15.8,0,31.4,0,47.1,0,8.7,0,17.4,0,26.1,0,1.4,0,2.8,0,4.2h0Z"/>
    <path class="st3" d="M174.4,99.9c-.2-13.9-.5-27.9-.6-41.8,0-5.4,1.8-13.6-4.3-16.4-2.2-1-4.9-.8-7.3-.9-3.6-.1-7.2-.3-10.8-.3h-71.6c-5.5,0-13.1-1.1-18.2,1.2s-4,7.2-4,11.8c0,0,0,.1,0,.2-.2,25-.6,50-.8,75,0,5.5-1.3,14.2,4.1,17.4,5.1,3,13.4,2.6,19,2.3,4.5-.2,8.8,0,13.3,0,14.1.3,28.4-.5,42.5-.7,4.6,0,9.2-.1,13.8-.2,6.1-.1,13.4.7,19.4-1,5.4-1.5,5.5-5.5,5.8-10.5.7-12,0-24.1-.1-36.1ZM172.4,134.2c0,1.6.2,4-.3,5.5-1.6,5-4.4,5-8.2,5.2-4.2.3-8.4.2-12.6.3-3.7,0-7.4.1-11.1.2l-42.6.7c-6.5.1-13,0-19.6,0-4.1.2-8.2-.1-12.2-.9-5.1-1.1-6.3-3.9-6.7-8.9-.2-2.4-.2-4.7-.3-7.1-.2-25.2,0-50.4,0-75.7,0,0,0,0,0-.1.2-4.7-.8-9.2,5.2-10.7,3.6-.9,8.1-.5,11.8-.4h75.4c6.4,0,19.3-1.9,20.4,6.6.3,2.7-.1,5.5-.1,8.2,0,11.8.3,23.5.5,35.2.2,12.2.5,24.5.5,36.7,0,1.8,0,3.4-.1,5.1h0Z"/>
    <path class="st2" d="M504.2,44.6c-1.2-.4-2.4-.4-3.6,0-15.6,0-31.1-1.8-46.6-2.4-8.5-.3-17-.4-25.5-.4h-11.4c-3.3,0-7-.4-10.1.7-.2,0-.4.2-.6.2-.7-1.6-2.2-2.4-4.3-1.6-3.1,1.1-5.2,4.7-5.8,7.8-3.6,17.6-2.6,35.6-.5,53.3-1.2,12.6-1.1,24.9,1.6,37.4,1.2,5.5,7.8.3,9.1-2.2,6.5-13.1,4.9-30.2,4.3-44.5-.3-7.4-.9-14.8-1.3-22.2-.2-3.9-.4-7.7-.6-11.6v-3.4c2.6.4,6.4-.3,8.7-.3,3.9,0,7.9,0,11.8,0,7.8,0,15.7.2,23.5.6,15.4.7,30.8,2.6,46.3,2.2,5.3,0,12.1-11.6,5.1-13.7Z"/>
    <path class="st3" d="M510.6,67.8v-4.3c0-5.8,1.3-13.7-1.2-19.2-2.3-5-7.2-4-11.9-4,0,0-.1,0-.2,0-26.2-.1-52.5-.6-78.7-.8-3.5,0-6.9-.1-10.4,0-4.6.2-10.6-.5-13.3,4-3.2,5.3-2.6,14.1-2.3,20,.7,14,.2,28.4.5,42.5.1,5.8.2,11.6.3,17.4.1,5.6-.1,11.5.6,17.1.6,4.8,2.3,7.6,7.3,8.1,11.9,1.3,24.2.3,36.1.1l48-.7c3.5,0,7.1-.2,10.6,0,4.2.1,9.6.8,12.5-3,1.3-1.8,1.5-4,1.6-6.1.2-4.1.3-8.2.4-12.4.3-12.6,0-25.3,0-38,0-6.9,0-13.9,0-20.8ZM508.7,58.9c0,2.6,0,5.1,0,7.6v57.3c0,1.9,0,3.7-.1,5.6-.1,3.4,0,6.9-.3,10.3-.6,7.1-6.6,6.5-11.9,6.4-2.9,0-5.9,0-8.8,0l-42.2.5c-11.3.1-22.6.5-33.9.4-2.7,0-5.4,0-8-.4-7.1-1.3-7-6.1-7.2-11.8,0-3.7-.2-7.4-.2-11,0-4.2-.2-8.4-.2-12.6-.2-12.6-1.4-25.6-.7-38.2.2-4.1.1-8,0-12.1-.2-4.1.1-8.2.9-12.2,1.5-6.8,6.7-6.6,12.5-6.8,3-.1,5.9,0,8.9,0,26.8.1,53.5-.1,80.2,0,0,0,0,0,.1,0,4.7.2,9.2-.8,10.7,5.2.9,3.7.4,8.1.4,11.9h0Z"/>
    <path class="st1" d="M523.2,20.8c-16.3,2.2-33.1,1.5-49.5,1.4-11.4,0-22.7,0-34,0-28.3-.1-56.7-.3-85-.5-26.4-.2-52.9-.4-79.3-.1-29.3.2-58.6,1.7-87.9,1.4-48-.5-96-2.4-144.1-2.4-4.4,0-8.3,5.7-8,9.9,3.3,42-1,84.1,1.4,126.1.2,3.2,2.6,4.6,5.5,3.2,3.3-1.9,5.3-5.4,5.3-9.2-2.2-38.7,1.3-77.5-.8-116.2,40.4.2,80.7,1.5,121.1,2.2,32.3.6,64.4-.7,96.6-1.1,54.4-.8,108.8.3,163.1.6,12.3,0,24.7,0,37,0,18.6.1,37.5.9,56-1.6,5.5-.7,10.2-14.5,2.5-13.5Z"/>
  </g>
</svg>